<?xml version="1.0" encoding="UTF-8"?>
<svg xmlns="http://www.w3.org/2000/svg" viewBox="0 0 118 106">
  <defs>
    <style>
      .cls-1 { fill: url(#mark-gradient-2); }
      .cls-3 { fill: #6792fa; }
      .cls-4 { fill: #5bebae; }
      .cls-6 { fill: url(#mark-gradient); }
    </style>
    <linearGradient id="mark-gradient" x1="68.44" y1="128.39" x2="68.44" y2="-11.52" gradientUnits="userSpaceOnUse">
      <stop offset=".06" stop-color="#062e6c"/>
      <stop offset=".21" stop-color="#1159d2"/>
      <stop offset=".64" stop-color="#6792fa"/>
      <stop offset="1" stop-color="#19d0d8"/>
    </linearGradient>
    <linearGradient id="mark-gradient-2" x1="92.51" y1="128.39" x2="92.51" y2="-11.52" gradientUnits="userSpaceOnUse">
      <stop offset=".06" stop-color="#062e6c"/>
      <stop offset=".22" stop-color="#1159d2"/>
      <stop offset=".64" stop-color="#6792fa"/>
      <stop offset="1" stop-color="#19d0d8"/>
    </linearGradient>
  </defs>
  <rect class="cls-4" x="10.55" y="3.32" width="18.16" height="18.16" rx="5.06" ry="5.06"/>
  <rect class="cls-3" x="0" y="55.62" width="14.49" height="14.49" rx="4.03" ry="4.03"/>
  <path class="cls-6" d="M92.14,91.7c-.1-.2-.16-.41-.17-.62-1.44-.11-2.86-.65-4.06-1.64-3.05-2.54-3.46-7.07-.92-10.11,2.54-3.05,7.07-3.46,10.11-.92,2.95,2.46,3.43,6.79,1.14,9.83.07.09.14.19.19.29l8.66,17.21h12.65l-17.67-33.54c9.39-7.4,15.43-18.87,15.43-31.76h0C117.53,18.1,99.43,0,77.1,0h-28.55s-.89.3-2.27,1.81c-1.38,1.51-1.23,4.8-1.17,9,.06,4.07,1.43,15.51-5.79,15.87h-17.83c-2.41,0-4.37,1.96-4.37,4.37v18.75c0,2.41,1.96,4.37,4.37,4.37h18.75c2.41,0,4.37-1.96,4.37-4.37v-17.9s.41-3.41,5.63-5.21h26.26c7.59,0,13.74,6.15,13.74,13.74s-6.15,13.74-13.74,13.74h-23.83c-10.22,0-13.59,5.25-13.59,5.25l-18.04,17.62c-2.5,2.44-3.9,5.78-3.9,9.27v19.42h27.48v-24.88h30.33l12.01,24.88h12.26l-7.07-14.03Z"/>
  <path class="cls-1" d="M89.86,81.71c-1.22,1.46-1.02,3.64.44,4.86,1.46,1.22,3.64,1.02,4.86-.44,1.22-1.46,1.02-3.64-.44-4.86-1.46-1.22-3.64-1.02-4.86.44Z"/>
</svg>
